<svg width="89" height="28" viewBox="0 0 89 28" fill="none" xmlns="http://www.w3.org/2000/svg">
<g clip-path="url(#clip0_2011_508)">
<path d="M25.7179 19.1857C24.9286 19.1857 24.2209 18.981 23.5961 18.5712C22.971 18.1617 22.4793 17.5657 22.1205 16.7831C21.7616 16.0002 21.5822 15.0511 21.5822 13.9343C21.5822 12.8176 21.7661 11.8515 22.1339 11.0719C22.5017 10.2924 22.9982 9.70242 23.623 9.30166C24.2482 8.90129 24.9431 8.70073 25.7089 8.70073C26.3069 8.70073 26.7955 8.80252 27.1756 9.00574C27.5553 9.20895 27.8575 9.45039 28.0817 9.72928C28.3059 10.0086 28.4748 10.2693 28.5886 10.5122H28.6874V5.44287H31.0199V19.0037H28.7322V17.3931H28.5886C28.4689 17.6357 28.2939 17.8968 28.0638 18.1757C27.8336 18.455 27.53 18.693 27.1532 18.8902C26.7765 19.0873 26.2979 19.1861 25.7179 19.1861V19.1857ZM26.3546 17.238C26.863 17.238 27.2935 17.0999 27.6464 16.8236C27.9992 16.5477 28.2682 16.161 28.4536 15.6634C28.639 15.1657 28.7318 14.5864 28.7318 13.9249C28.7318 13.2634 28.6404 12.6886 28.4584 12.2C28.276 11.7118 28.0067 11.3308 27.6508 11.0579C27.295 10.7847 26.8626 10.6485 26.3546 10.6485C25.8465 10.6485 25.3885 10.7896 25.036 11.0716C24.6831 11.3539 24.4168 11.7421 24.2377 12.2363C24.0583 12.7309 23.9684 13.2937 23.9684 13.9245C23.9684 14.5553 24.0583 15.1211 24.2377 15.6217C24.4171 16.1224 24.6846 16.5167 25.0405 16.8047C25.3963 17.093 25.8346 17.2372 26.355 17.2372L26.3546 17.238Z" fill="white"/>
<path d="M33.5322 7.39024C33.1614 7.39024 32.8428 7.26271 32.5769 7.00803C32.3105 6.75298 32.1777 6.44986 32.1777 6.09792C32.1777 5.74599 32.3109 5.42622 32.5769 5.17419C32.8428 4.92254 33.1614 4.79614 33.5322 4.79614C33.9029 4.79614 34.2305 4.92216 34.4968 5.17419C34.7627 5.42584 34.8959 5.73085 34.8959 6.08884C34.8959 6.44683 34.7627 6.75298 34.4968 7.00803C34.2305 7.26271 33.9093 7.39024 33.5322 7.39024ZM32.3661 19.0033V8.82825H34.6986V19.0033H32.3661Z" fill="white"/>
<path d="M40.3778 23.0264C39.5762 23.0264 38.8779 22.9231 38.283 22.7169C37.6876 22.5106 37.2005 22.2298 36.8207 21.8753C36.4406 21.5203 36.1672 21.118 35.9997 20.6692L37.9733 19.9502C38.0808 20.1383 38.2289 20.3328 38.4172 20.5326C38.6056 20.7328 38.857 20.8982 39.1707 21.0287C39.4848 21.1589 39.8839 21.2244 40.3685 21.2244C41.0921 21.2244 41.6722 21.0529 42.1086 20.7105C42.545 20.3676 42.7636 19.8321 42.7636 19.1037V17.1836H42.5663C42.4529 17.4265 42.2854 17.6766 42.0642 17.9344C41.843 18.1924 41.5454 18.4089 41.1716 18.5849C40.7978 18.7612 40.3207 18.849 39.7407 18.849C38.9749 18.849 38.28 18.6658 37.6548 18.2984C37.03 17.9313 36.5335 17.3807 36.1657 16.6466C35.7979 15.9128 35.614 14.9932 35.614 13.889C35.614 12.7847 35.7994 11.8292 36.1702 11.0584C36.541 10.2879 37.0389 9.70248 37.6637 9.30211C38.2885 8.90174 38.9868 8.70117 39.7586 8.70117C40.3506 8.70117 40.8381 8.80145 41.2208 9.00164C41.6036 9.20183 41.9083 9.44326 42.1358 9.72519C42.363 10.0075 42.5365 10.2697 42.6562 10.5127H42.7819V8.8287H45.0696V19.0314C45.0696 19.9351 44.866 20.6832 44.4594 21.2747C44.0524 21.8666 43.4962 22.3063 42.7905 22.5943C42.0847 22.8822 41.2805 23.0268 40.3774 23.0268L40.3778 23.0264ZM40.3957 16.983C40.9041 16.983 41.3346 16.8604 41.6875 16.6144C42.0404 16.3684 42.3093 16.0123 42.4947 15.545C42.6801 15.0776 42.773 14.5198 42.773 13.8704C42.773 13.2211 42.6816 12.6648 42.4995 12.1823C42.3171 11.7002 42.0493 11.3237 41.6964 11.0538C41.3436 10.784 40.9097 10.6489 40.3957 10.6489C39.8817 10.6489 39.4285 10.7901 39.0723 11.072C38.7164 11.3543 38.4489 11.7361 38.2695 12.2186C38.0901 12.7007 38.0002 13.2513 38.0002 13.8704C38.0002 14.4896 38.0912 15.0413 38.2736 15.5086C38.456 15.976 38.725 16.3385 39.0812 16.5962C39.4371 16.8543 39.875 16.983 40.3954 16.983H40.3957Z" fill="white"/>
<path d="M47.5912 7.39024C47.2204 7.39024 46.9018 7.26271 46.6359 7.00803C46.3695 6.75298 46.2368 6.44986 46.2368 6.09792C46.2368 5.74599 46.3699 5.42622 46.6359 5.17419C46.9018 4.92254 47.2204 4.79614 47.5912 4.79614C47.962 4.79614 48.2895 4.92216 48.5558 5.17419C48.8218 5.42584 48.9549 5.73085 48.9549 6.08884C48.9549 6.44683 48.8218 6.75298 48.5558 7.00803C48.2895 7.26271 47.9683 7.39024 47.5912 7.39024ZM46.4251 19.0033V8.82825H48.7576V19.0033H46.4251Z" fill="white"/>
<path d="M54.7509 8.82825V10.6852H49.0542V8.82825H54.7509ZM50.481 6.40747H52.8135V16.1368C52.8135 16.5069 52.8911 16.7782 53.0466 16.9511C53.2021 17.1241 53.4562 17.2107 53.8094 17.2107C53.9172 17.2107 54.059 17.1971 54.2354 17.1695C54.4118 17.1426 54.554 17.1165 54.6614 17.0919L55.0292 18.9216C54.7722 19.0003 54.5088 19.0563 54.2399 19.09C53.9709 19.1229 53.7136 19.1399 53.4685 19.1399C52.5054 19.1399 51.7668 18.8974 51.2528 18.4115C50.7384 17.9263 50.481 17.2346 50.481 16.3366V6.40747Z" fill="white"/>
<path d="M56.6443 7.39024C56.2736 7.39024 55.955 7.26271 55.689 7.00803C55.4227 6.75298 55.2899 6.44986 55.2899 6.09792C55.2899 5.74599 55.4231 5.42622 55.689 5.17419C55.955 4.92254 56.2736 4.79614 56.6443 4.79614C57.0151 4.79614 57.3426 4.92216 57.609 5.17419C57.8749 5.42584 58.0081 5.73085 58.0081 6.08884C58.0081 6.44683 57.8749 6.75298 57.609 7.00803C57.3426 7.26271 57.0215 7.39024 56.6443 7.39024ZM55.4783 19.0033V8.82825H57.8108V19.0033H55.4783Z" fill="white"/>
<path d="M62.0102 19.0034L58.2781 8.82837H60.7721L62.6022 14.3621C62.8174 15.0114 63.0028 15.6638 63.1583 16.3189C63.3139 16.9743 63.4724 17.6385 63.6335 18.3121H63.0505C63.218 17.6385 63.378 16.9743 63.5306 16.3189C63.6832 15.6638 63.8641 15.0114 64.0733 14.3621L65.8944 8.82837H68.3705L64.6206 19.0034H62.0098H62.0102Z" fill="white"/>
<path d="M72.8389 19.2126C71.8638 19.2126 71.0178 18.9931 70.3001 18.5526C69.5824 18.1129 69.0274 17.5002 68.6361 16.7142C68.2444 15.929 68.0486 15.0139 68.0486 13.9702C68.0486 12.9265 68.2444 11.9907 68.6361 11.199C69.0278 10.4074 69.5824 9.79282 70.3001 9.35611C71.0178 8.91903 71.8638 8.70068 72.8389 8.70068C73.8139 8.70068 74.6693 8.91903 75.3866 9.35611C76.1043 9.79282 76.6589 10.407 77.0506 11.199C77.4423 11.9907 77.6381 12.9144 77.6381 13.9702C77.6381 15.026 77.4423 15.9286 77.0506 16.7142C76.6589 17.5002 76.1043 18.1129 75.3866 18.5526C74.6689 18.9927 73.8195 19.2126 72.8389 19.2126ZM72.8389 17.2924C73.3831 17.2924 73.8363 17.1441 74.1981 16.8466C74.56 16.5492 74.8289 16.1492 75.0054 15.6451C75.1818 15.1415 75.2698 14.5803 75.2698 13.9615C75.2698 13.3428 75.1814 12.7725 75.0054 12.2685C74.8289 11.7648 74.5596 11.3644 74.1981 11.067C73.8363 10.7699 73.3831 10.6212 72.8389 10.6212C72.2946 10.6212 71.8448 10.7699 71.4889 11.067C71.1331 11.3644 70.8667 11.7633 70.6907 12.2639C70.5142 12.7642 70.4262 13.3303 70.4262 13.9612C70.4262 14.592 70.5142 15.1411 70.6907 15.6448C70.8671 16.1488 71.1331 16.5488 71.4889 16.8463C71.8448 17.1437 72.295 17.2921 72.8389 17.2921V17.2924Z" fill="white"/>
<path d="M58.2043 26.7269L59.6803 22.4355H60.6427L62.153 26.7269H61.3212L60.5688 24.4976C60.495 24.2667 60.4185 24.0068 60.3391 23.7154C60.2596 23.4244 60.1716 23.0936 60.075 22.7231H60.2342C60.1395 23.0974 60.0541 23.4316 59.9772 23.7241C59.9008 24.017 59.828 24.2747 59.7601 24.4976L59.0331 26.7269H58.2043ZM59.0645 25.6639V25.0448H61.2932V25.6639H59.0645Z" fill="white"/>
<path d="M63.61 28.0001C63.3564 28.0001 63.1352 27.9676 62.9472 27.9021C62.7588 27.837 62.6044 27.7481 62.4842 27.6357C62.3641 27.5237 62.2776 27.3961 62.2243 27.2538L62.8491 27.0264C62.883 27.0862 62.93 27.1475 62.9897 27.2107C63.0494 27.2739 63.1288 27.3261 63.228 27.3678C63.3273 27.409 63.4537 27.4294 63.607 27.4294C63.8361 27.4294 64.0196 27.3749 64.158 27.2663C64.296 27.1577 64.3654 26.9886 64.3654 26.7585V26.1504H64.3031C64.2673 26.2276 64.2139 26.3067 64.1442 26.388C64.074 26.4698 63.9801 26.5382 63.8618 26.5939C63.7432 26.6499 63.5925 26.6775 63.409 26.6775C63.1669 26.6775 62.9468 26.6192 62.7491 26.5031C62.5514 26.3873 62.394 26.2128 62.2776 25.9801C62.1612 25.7477 62.103 25.4567 62.103 25.1078C62.103 24.7589 62.1616 24.4558 62.2791 24.2121C62.3966 23.968 62.554 23.7829 62.7517 23.6558C62.9494 23.529 63.1706 23.4658 63.4146 23.4658C63.6018 23.4658 63.7559 23.4976 63.8771 23.5608C63.9983 23.624 64.0949 23.7004 64.1666 23.7898C64.2382 23.8791 64.2934 23.9623 64.3311 24.0391H64.371V23.5063H65.095V26.7346C65.095 27.0207 65.0305 27.2576 64.9018 27.445C64.7731 27.6319 64.597 27.7712 64.374 27.8624C64.1505 27.9539 63.8961 27.9993 63.6104 27.9993L63.61 28.0001ZM63.6156 26.0875C63.7764 26.0875 63.9125 26.0486 64.0244 25.971C64.136 25.8934 64.2214 25.7806 64.28 25.6327C64.3389 25.4851 64.368 25.3084 64.368 25.1029C64.368 24.8974 64.3393 24.7211 64.2814 24.5685C64.2236 24.416 64.139 24.2972 64.0274 24.2117C63.9159 24.1262 63.7786 24.0834 63.6156 24.0834C63.4526 24.0834 63.3094 24.1277 63.1967 24.217C63.0841 24.3063 62.9994 24.4274 62.9427 24.5799C62.886 24.7328 62.8576 24.9069 62.8576 25.1029C62.8576 25.2989 62.8864 25.4734 62.9442 25.6213C63.002 25.7693 63.087 25.884 63.1997 25.9657C63.3124 26.0471 63.4511 26.0879 63.6156 26.0879V26.0875Z" fill="white"/>
<path d="M66.9262 26.7933C66.6061 26.7933 66.3316 26.7252 66.1015 26.5889C65.8717 26.4527 65.6945 26.2605 65.5706 26.0126C65.4468 25.7647 65.3849 25.473 65.3849 25.1369C65.3849 24.8009 65.4457 24.514 65.568 24.2647C65.69 24.0149 65.8635 23.8196 66.0877 23.6785C66.3118 23.5373 66.5756 23.4666 66.8781 23.4666C67.0713 23.4666 67.2552 23.4983 67.4301 23.5615C67.6051 23.6247 67.7606 23.7227 67.8957 23.8552C68.0311 23.9876 68.137 24.1564 68.2135 24.3608C68.2899 24.5651 68.3284 24.8088 68.3284 25.0911V25.3273H65.7337V24.8175H67.9624L67.6159 24.9674C67.6159 24.7865 67.5883 24.6279 67.5335 24.4906C67.4786 24.3536 67.3966 24.2461 67.2876 24.1697C67.1787 24.0928 67.043 24.0546 66.8803 24.0546C66.7177 24.0546 66.5793 24.0936 66.4655 24.1712C66.3521 24.2488 66.2656 24.3524 66.2059 24.4822C66.1462 24.6117 66.1164 24.7562 66.1164 24.9159V25.2671C66.1164 25.4707 66.1503 25.6425 66.2186 25.7829C66.2865 25.9229 66.3823 26.0289 66.5054 26.0996C66.6285 26.1708 66.7714 26.2063 66.934 26.2063C67.0418 26.2063 67.1399 26.1905 67.228 26.159C67.316 26.1273 67.3921 26.0803 67.4566 26.0179C67.5208 25.9555 67.5693 25.879 67.6014 25.7886L68.2799 25.9297C68.2288 26.1027 68.1419 26.2536 68.0188 26.3838C67.8957 26.5132 67.742 26.6143 67.5573 26.6858C67.3727 26.7581 67.1623 26.794 66.9258 26.794L66.9262 26.7933Z" fill="white"/>
<path d="M69.3452 24.8401V26.7266H68.607V23.5066H69.3053L69.3165 24.3016H69.2568C69.3459 24.0231 69.4765 23.8142 69.6485 23.675C69.8204 23.5357 70.0364 23.4661 70.2956 23.4661C70.5131 23.4661 70.7034 23.513 70.8664 23.6072C71.029 23.7014 71.1554 23.8388 71.2453 24.0193C71.3352 24.1998 71.3804 24.4197 71.3804 24.6789V26.7266H70.6422V24.794C70.6422 24.5786 70.5873 24.4099 70.4773 24.2869C70.3676 24.1639 70.2162 24.1026 70.023 24.1026C69.8924 24.1026 69.776 24.1313 69.6738 24.1889C69.5716 24.2468 69.491 24.3308 69.4325 24.4409C69.3735 24.5514 69.3445 24.6842 69.3445 24.8397L69.3452 24.8401Z" fill="white"/>
<path d="M73.1865 26.7933C72.8781 26.7933 72.6102 26.7237 72.3831 26.5844C72.1559 26.4451 71.9806 26.251 71.8564 26.0028C71.7325 25.7538 71.6706 25.4646 71.6706 25.1343C71.6706 24.8039 71.7325 24.5076 71.8564 24.2571C71.9806 24.0069 72.1559 23.8121 72.3831 23.6739C72.6102 23.5358 72.8781 23.4666 73.1865 23.4666C73.3626 23.4666 73.526 23.4896 73.6778 23.5358C73.8292 23.5816 73.9647 23.6482 74.0836 23.7356C74.203 23.823 74.303 23.9294 74.3832 24.0542C74.4634 24.1791 74.5208 24.3203 74.5548 24.4773L73.8651 24.6242C73.8442 24.5417 73.8143 24.466 73.7755 24.3979C73.7367 24.3297 73.689 24.2715 73.6319 24.2238C73.5752 24.1757 73.5099 24.1386 73.4361 24.1125C73.3622 24.0868 73.2809 24.0735 73.1918 24.0735C73.0194 24.0735 72.8766 24.1201 72.7632 24.2136C72.6494 24.3067 72.5643 24.4323 72.5076 24.5905C72.4509 24.749 72.4226 24.9288 72.4226 25.1309C72.4226 25.3329 72.4509 25.507 72.5076 25.6667C72.5643 25.826 72.6494 25.952 72.7632 26.0451C72.8766 26.1386 73.0194 26.1852 73.1918 26.1852C73.2828 26.1852 73.3652 26.1715 73.4402 26.1447C73.5148 26.1178 73.5812 26.0796 73.639 26.0296C73.6968 25.9797 73.7453 25.9191 73.7852 25.8484C73.8251 25.7776 73.8542 25.6985 73.8733 25.6122L74.563 25.759C74.529 25.9203 74.4716 26.0641 74.3914 26.1908C74.3112 26.3176 74.2108 26.4255 74.0904 26.5148C73.9702 26.6041 73.8341 26.6729 73.6815 26.7206C73.529 26.7687 73.3641 26.7929 73.1862 26.7929L73.1865 26.7933Z" fill="white"/>
<path d="M74.7029 27.8759L74.8759 27.2916L74.964 27.3147C75.0755 27.3434 75.1751 27.3517 75.262 27.3393C75.3489 27.3268 75.422 27.2882 75.4806 27.2242C75.5392 27.1599 75.5809 27.066 75.6056 26.943L75.6507 26.7387L74.4529 23.5073H75.2419L75.8212 25.2583C75.8891 25.4657 75.945 25.6723 75.9887 25.8774C76.0319 26.0829 76.0804 26.2933 76.1334 26.5082H75.9402C75.9913 26.2929 76.0424 26.0825 76.0935 25.8763C76.1446 25.6696 76.2043 25.4638 76.2721 25.2583L76.8712 23.5073H77.6519L76.2893 27.1421C76.2248 27.3131 76.1446 27.4596 76.048 27.5811C75.9513 27.7029 75.8331 27.796 75.6932 27.8592C75.553 27.9224 75.3877 27.9542 75.1964 27.9542C75.0923 27.9542 74.9964 27.9462 74.908 27.9307C74.82 27.9156 74.7514 27.897 74.7025 27.8759H74.7029Z" fill="white"/>
<path d="M84.7605 14.5668C84.2465 14.5668 83.7634 14.468 83.3113 14.2701C82.8592 14.0722 82.4631 13.7997 82.1229 13.4523C81.7823 13.1046 81.5145 12.7015 81.3194 12.2429C81.1243 11.7846 81.027 11.2946 81.027 10.7727C81.027 10.2509 81.1243 9.76118 81.3194 9.30291C81.5145 8.84426 81.7823 8.44124 82.1229 8.09346C82.4635 7.74607 82.8596 7.47323 83.3113 7.27569C83.7631 7.07777 84.2461 6.979 84.7605 6.979C85.2749 6.979 85.7639 7.07777 86.216 7.27569C86.6677 7.4736 87.065 7.74607 87.4078 8.09346C87.7506 8.44124 88.0184 8.84426 88.2109 9.30291C88.4038 9.76118 88.5 10.2512 88.5 10.7727C88.5 11.2942 88.4038 11.7842 88.2109 12.2429C88.0181 12.7012 87.7506 13.1042 87.4078 13.4523C87.065 13.8001 86.6677 14.0726 86.216 14.2701C85.7639 14.468 85.279 14.5668 84.7605 14.5668ZM84.7605 13.5958C85.2745 13.5958 85.7427 13.4686 86.1645 13.2143C86.5864 12.96 86.9229 12.6202 87.1736 12.1941C87.4242 11.7683 87.5492 11.2946 87.5492 10.7731C87.5492 10.2516 87.4239 9.77783 87.1736 9.3521C86.9229 8.926 86.5868 8.58617 86.1645 8.33187C85.7427 8.07757 85.2745 7.9508 84.7605 7.9508C84.2465 7.9508 83.7847 8.07795 83.3628 8.33187C82.9409 8.58617 82.6045 8.926 82.3538 9.3521C82.1031 9.77783 81.9778 10.2493 81.9778 10.7667C81.9778 11.284 82.1031 11.763 82.3538 12.191C82.6045 12.619 82.9406 12.9604 83.3628 13.2147C83.7847 13.469 84.2506 13.5961 84.7605 13.5961V13.5958ZM83.424 12.5006V9.0066H85.1331C85.326 9.0066 85.5099 9.04974 85.6856 9.13678C85.8613 9.22382 86.0045 9.35097 86.1161 9.51785C86.2272 9.68512 86.2832 9.89287 86.2832 10.1404C86.2832 10.3879 86.2253 10.6062 86.1097 10.7825C85.9941 10.9585 85.8452 11.0921 85.6632 11.1833C85.4812 11.2745 85.2913 11.3203 85.0947 11.3203H83.8996V10.7269H84.8829C85.0071 10.7269 85.1205 10.6792 85.2234 10.5835C85.326 10.4881 85.3775 10.3443 85.3775 10.1532C85.3775 9.96212 85.3249 9.8274 85.2201 9.74907C85.1152 9.67112 85.0048 9.63176 84.8892 9.63176H84.2722V12.4998H83.424V12.5006ZM85.4674 12.5006L84.6963 10.8707H85.5894L86.4051 12.5006H85.467H85.4674Z" fill="white"/>
<path d="M10.8195 17.1796V0.464182C10.8195 0.1043 11.2063 -0.118592 11.5111 0.0660795L16.6315 3.16651C16.7699 3.25014 16.8542 3.40151 16.8542 3.56461V19.9413C16.8542 20.2993 16.4715 20.5222 16.1667 20.3421L10.8195 17.1792V17.1796ZM0.730525 18.4757L10.1358 23.9204C10.4405 24.0968 10.8195 23.8735 10.8195 23.5178V17.1799L6.76856 14.8795C6.6242 14.7974 6.53467 14.6426 6.53467 14.475V7.01698C6.53467 6.6571 6.14786 6.43421 5.8431 6.61888L0.722691 9.71855C0.584302 9.80218 0.5 9.95355 0.5 10.1167V18.0726C0.5 18.2392 0.588032 18.3928 0.730525 18.4753V18.4757Z" fill="url(#paint0_linear_2011_508)"/>
</g>
<defs>
<linearGradient id="paint0_linear_2011_508" x1="8.67729" y1="23.9817" x2="8.67729" y2="-0.00014408" gradientUnits="userSpaceOnUse">
<stop stop-color="#0080E2"/>
<stop offset="0.33" stop-color="#B72ECF"/>
<stop offset="0.66" stop-color="#FF133E"/>
<stop offset="1" stop-color="#E88200"/>
</linearGradient>
<clipPath id="clip0_2011_508">
<rect width="88" height="28" fill="white" transform="translate(0.5)"/>
</clipPath>
</defs>
</svg>
