<svg width="171" height="63" viewBox="0 0 171 63" fill="none" xmlns="http://www.w3.org/2000/svg">
<path d="M78.5233 59.8058C77.4265 58.954 77.5883 57.2148 78.7931 56.7179C80.1057 56.1678 81.1845 56.9486 81.1845 58.4216C81.1845 59.1669 81.1126 59.3621 80.6811 59.7348C80.0517 60.2672 79.1527 60.285 78.5233 59.8058Z" fill="white"/>
<path d="M85.6618 59.8058C84.529 59.3621 83.4322 58.2441 82.9647 57.0551C82.4432 55.6886 82.4792 52.583 83.0366 51.3585C83.558 50.2227 84.511 49.2999 85.6798 48.7675C86.9744 48.1996 89.258 48.1996 90.5886 48.7852C92.0631 49.4418 93.142 50.9325 93.142 52.3345C93.142 52.7072 93.07 52.7249 91.7574 52.6717C90.4808 52.6185 90.3549 52.583 90.3009 52.2458C90.211 51.6069 89.294 50.897 88.4309 50.8083C86.6508 50.6309 85.5899 51.9263 85.5899 54.3044C85.6079 56.4872 86.3271 57.5875 87.8735 57.8004C88.8984 57.9424 89.8514 57.481 90.1751 56.7002L90.4448 56.079H91.7934H93.142V56.6114C93.142 57.8182 92.3328 59.0249 91.0741 59.6816C90.0132 60.2317 86.9385 60.3027 85.6618 59.8058Z" fill="white"/>
<path d="M97.9969 60.0009C96.5943 59.5572 95.3716 58.457 94.7243 57.055C94.3827 56.3096 94.3287 55.8482 94.3107 54.3043C94.3107 52.5474 94.3467 52.3699 94.9041 51.2519C95.9111 49.211 97.3675 48.3947 99.9748 48.377C101.863 48.377 103.032 48.8206 104.11 49.9741C105.315 51.2696 105.621 52.1392 105.621 54.3043C105.639 56.4516 105.297 57.4454 104.146 58.6167C103.032 59.7702 102.294 60.0541 100.244 60.1074C99.2555 60.1251 98.2486 60.0896 97.9969 60.0009ZM101.395 57.3744C103.175 56.0967 103.085 52.3522 101.251 51.1631C100.029 50.3468 98.3205 50.8615 97.6552 52.2279C97.2237 53.0798 97.1338 55.1384 97.4754 56.0257C98.0868 57.6229 100.083 58.315 101.395 57.3744Z" fill="white"/>
<path d="M106.987 54.3043V48.6254H108.624H110.278L110.17 49.2821L110.062 49.9209L110.638 49.3885C110.961 49.0868 111.375 48.7674 111.573 48.6609C112.22 48.3415 113.55 48.235 114.36 48.448C115.205 48.6787 116.338 49.6725 116.338 50.1871C116.338 50.3823 116.535 50.2581 116.895 49.8145C118.369 48.0576 121.121 47.8091 122.649 49.2998C123.566 50.2226 123.71 51.0744 123.71 55.9015V59.9832H122.181H120.653V56.2564C120.653 51.8553 120.545 51.4294 119.43 51.0922C118.801 50.9147 118.621 50.9325 118.01 51.2164C117.003 51.7133 116.895 52.1925 116.895 56.3984L116.877 59.9832H115.367H113.838L113.784 55.9015C113.73 51.9263 113.712 51.8198 113.317 51.4294C112.741 50.8615 111.501 50.8615 110.871 51.4471C110.188 52.0683 110.008 53.3105 110.08 56.8775L110.134 59.9832H108.57H106.987V54.3043Z" fill="white"/>
<path d="M7.32079 57.9286C4.76748 57.2187 2.7536 55.4086 1.76464 52.8708L1.29713 51.6995L1.24319 34.6629C1.20722 22.7195 1.24319 17.2891 1.38703 16.4728C1.85454 13.7753 3.56274 11.5925 6.20596 10.2793C7.62647 9.5694 7.68041 9.53391 7.68041 8.93053C7.68041 7.98996 8.12994 7.12039 8.79524 6.71222C9.35265 6.39278 9.69429 6.35729 13.4883 6.35729C18.0735 6.35729 18.559 6.44602 19.1883 7.45757C19.3861 7.79475 19.5479 8.36264 19.5479 8.77081C19.5479 9.60489 19.7097 9.72912 20.8246 9.72912C21.7596 9.72912 22.6227 9.35644 23.1082 8.75306C23.3239 8.48687 23.7015 7.5818 23.9713 6.74771C24.8164 3.97926 25.6974 2.80799 27.6034 1.88518L28.8082 1.29954L37.2952 1.2463C42.7255 1.21081 46.1599 1.26405 46.8252 1.37053C48.2097 1.63672 49.3246 2.18687 50.2416 3.09194C51.1586 3.99701 51.5362 4.72461 52.2555 6.90743C52.6511 8.11419 52.9747 8.75306 53.3703 9.12574L53.9097 9.64039L59.8795 9.74687C64.9501 9.81785 65.975 9.88884 66.6583 10.1373C69.3914 11.1843 71.4593 13.5446 72.0347 16.2598C72.1785 16.9164 72.2325 22.3646 72.2325 34.095C72.2325 48.7004 72.1965 51.1494 71.9627 52.0545C71.1716 55.0359 69.0498 57.1477 66.065 57.9286C64.7523 58.2657 8.57946 58.2657 7.32079 57.9286ZM31.2356 54.3083C26.1829 52.0012 23.8274 50.2976 21.4539 47.2807C17.9836 42.8618 16.4732 38.301 16.7249 32.9948C16.9766 27.7418 19.0624 23.1455 22.9463 19.3122C28.7362 13.5979 36.9716 11.6457 44.6135 14.1835C51.7161 16.526 57.0025 22.5066 58.5848 29.9601C59.0343 32.1074 59.1243 35.6745 58.7646 37.5911C57.7937 42.8263 54.9706 47.5291 50.8709 50.7412C49.3066 51.9835 47.8142 52.8176 45.3687 53.8469L43.5526 54.6277H54.4492H65.3637L66.3167 54.1308C67.3956 53.5807 68.3126 52.4271 68.6362 51.2559C68.7621 50.7945 68.7981 44.8849 68.7801 33.6514L68.7261 16.739L68.2946 15.9404C67.7552 14.9111 67.1078 14.219 66.2088 13.7576C65.5255 13.3849 65.2019 13.3671 59.4659 13.2784L53.4422 13.1897L52.2195 12.604C50.5653 11.7877 49.7921 10.7584 48.965 8.25616C48.2817 6.17982 48.0479 5.75391 47.2927 5.27475C46.8252 4.95532 46.2498 4.93757 37.9426 4.93757H29.0959L28.4485 5.48771C27.9271 5.94912 27.7113 6.35729 27.1899 8.0432C26.3088 10.8117 25.4997 11.8409 23.3959 12.7815C22.5328 13.1719 22.335 13.1897 15.1426 13.2784C7.01511 13.3849 7.28483 13.3317 6.13404 14.5562C5.81038 14.8756 5.41479 15.4257 5.23498 15.7629C4.91132 16.3486 4.89334 17.2004 4.8394 33.4029C4.78546 52.09 4.76748 51.4688 5.86432 52.9773C6.18798 53.4032 6.76337 53.8824 7.33877 54.1663L8.29177 54.6277L20.0694 54.61C31.1097 54.61 31.829 54.5922 31.2356 54.3083ZM40.7836 51.3446C44.5236 50.7057 47.5624 49.1618 50.2056 46.5708C51.3924 45.4173 53.2984 42.986 53.1545 42.8441C53.1186 42.8086 52.5252 42.915 51.8239 43.0925C50.2056 43.5184 46.3937 43.5539 44.7394 43.1812C40.5138 42.1874 37.7088 38.9753 37.7088 35.1243C37.7088 31.9832 39.2552 29.41 41.8984 28.0967C42.5817 27.7595 43.3369 27.4756 43.5706 27.4756C44.3618 27.4756 44.0022 27.1739 42.9773 26.961C40.6757 26.5173 38.3561 26.819 35.9646 27.9193C34.1665 28.7356 32.8359 29.7117 30.2646 32.0719C27.8012 34.3257 25.6435 35.8874 22.9823 37.3604C21.9574 37.9283 21.0763 38.4962 21.0403 38.6204C20.9864 38.7446 21.1303 39.348 21.346 39.9514C23.234 45.1333 27.2978 49.0731 32.4583 50.7057C35.2993 51.6108 38.0325 51.8238 40.7836 51.3446ZM52.2914 39.5432C55.0426 38.6381 55.0426 38.6381 55.3302 35.6922C55.7258 31.5928 54.7009 27.5821 52.4533 24.2635C51.4463 22.8083 49.0908 20.4835 47.6164 19.4897C42.3839 16.0291 35.7129 15.6032 30.0668 18.3894C26.3448 20.2173 23.8094 22.7373 22.0473 26.3221C20.8965 28.6646 20.447 30.4038 20.3211 33.1367L20.2132 35.3373L21.0943 34.8226C24.0971 33.119 26.0391 31.6638 28.9161 28.9663C31.8829 26.1979 34.4003 24.7249 37.475 23.944C39.2731 23.4826 42.1501 23.4471 43.7325 23.8376C45.153 24.1925 47.1489 25.1686 48.0839 25.9494C49.4325 27.1029 50.2056 29.3745 49.4504 29.9779C49.2526 30.1553 48.6053 30.2263 47.4366 30.2441C44.1101 30.2795 42.5277 30.9184 41.5747 32.6398C41.1072 33.4739 41.0353 33.7756 41.0353 35.0179C41.0353 36.615 41.3769 37.4314 42.4198 38.4607C43.7145 39.7562 45.6564 40.2708 48.6952 40.1643C50.2416 40.1111 50.9429 39.9869 52.2914 39.5432Z" fill="white"/>
<path d="M84.0795 45.1648C82.1555 44.6324 80.9867 43.2837 80.789 41.438L80.6811 40.462H82.2454H83.7918V40.9589C83.7918 42.0414 84.8167 42.769 86.3451 42.769C88.2691 42.769 89.33 41.4026 88.6107 39.8409C88.305 39.1842 87.6398 38.9003 85.536 38.4921C82.2095 37.871 81.1126 36.9304 80.9508 34.5702C80.9148 33.8426 80.9688 32.9375 81.0946 32.4938C81.3823 31.4113 82.7129 30.1513 83.9896 29.7076C85.2662 29.2817 87.3521 29.2817 88.6287 29.7076C89.9593 30.1513 91.2 31.3758 91.4877 32.5116C91.8473 33.9313 91.8833 33.8958 90.211 33.8958H88.7186L88.5028 33.3102C88.2511 32.618 87.1722 31.9437 86.3271 31.9437C85.518 31.9437 84.583 32.3696 84.2233 32.902C83.8098 33.5586 83.9716 34.7476 84.583 35.2623C85.0145 35.6349 85.3741 35.7237 88.2871 36.2916C90.8044 36.7885 91.8833 38.0307 91.8833 40.4265C91.8833 42.7513 91.218 43.9758 89.4738 44.8454C88.7006 45.2358 88.2691 45.3245 86.7587 45.36C85.5899 45.3955 84.6549 45.3423 84.0795 45.1648Z" fill="white"/>
<path d="M95.6593 45.1471C94.8322 44.7922 94.2748 44.2598 93.8073 43.3902C93.4297 42.7336 93.4117 42.3787 93.3577 38.2437L93.3038 33.8071H94.8322H96.3785V37.4452C96.3785 41.4204 96.5224 42.077 97.4574 42.5384C98.1047 42.8578 99.3814 42.8223 99.9927 42.4674C100.892 41.935 101.018 41.4204 101.108 37.4806L101.197 33.8604H102.708H104.2L104.254 39.557L104.29 45.2536H102.762H101.233V44.4728V43.6919L100.55 44.3663C100.173 44.739 99.5612 45.1294 99.1656 45.2359C98.1587 45.5021 96.3965 45.4666 95.6593 45.1471Z" fill="white"/>
<path d="M106.268 39.5393V33.8072L107.743 33.8427L109.235 33.8782L109.199 34.9075C109.163 35.7771 109.181 35.8836 109.379 35.5819C110.134 34.3574 111.465 33.541 112.705 33.541C113.047 33.541 113.101 33.6297 113.101 34.2331C113.101 34.6058 113.047 35.2802 112.993 35.7416C112.885 36.5047 112.849 36.5579 112.31 36.5579C111.644 36.5579 110.422 37.0903 110.008 37.5517C109.433 38.1906 109.343 38.865 109.325 42.0593L109.289 45.2537H107.779H106.268V39.5393Z" fill="white"/>
<path d="M115.618 40.7282V36.2029H114.809H113.982L114.036 35.0139L114.09 33.8071L114.863 33.8603L115.618 33.9313V33.1327C115.618 32.2277 116.032 30.9677 116.481 30.4708C117.075 29.8141 118.118 29.4415 119.682 29.335L121.192 29.2285V30.4175V31.5888H120.401C119.304 31.5888 118.837 31.997 118.729 33.0795L118.621 33.9313L119.916 33.8603L121.192 33.8071V35.0139V36.2029H119.934H118.675V40.7282V45.2536H117.147H115.618V40.7282Z" fill="white"/>
<path d="M159.348 29.2462C159.402 29.122 159.726 28.1814 160.103 27.1344L160.769 25.271L158.701 19.6809C157.55 16.6285 156.615 14.0552 156.615 13.9843C156.615 13.8955 157.352 13.8423 158.233 13.8423C159.132 13.8423 159.852 13.86 159.852 13.8955C159.852 13.931 160.409 15.5814 161.11 17.569C162.279 20.9409 162.369 21.1361 162.567 20.6569C162.675 20.373 163.25 18.7226 163.844 17.0012L164.922 13.8423H166.433C167.44 13.8423 167.943 13.9133 167.943 14.0375C167.943 14.1972 164.347 24.0465 162.603 28.7138L162.315 29.4592H160.805C159.654 29.4592 159.294 29.4059 159.348 29.2462Z" fill="white"/>
<path d="M83.8817 25.3776C82.3893 24.8984 81.5621 24.1708 81.1126 22.9641C80.8968 22.4317 80.735 21.7218 80.735 21.3846V20.7635H82.2634H83.7918V21.2959C83.7918 21.6331 83.9896 22.0413 84.3132 22.3962C84.8347 22.9641 84.8707 22.9818 86.3091 22.9818C87.7476 22.9818 87.7836 22.9641 88.305 22.3962C88.9524 21.6863 89.0063 20.6925 88.4489 19.9827C87.9634 19.3793 87.5858 19.2373 85.3202 18.7936C83.2524 18.3855 82.2634 17.9063 81.688 17.0545C79.9438 14.5167 81.3464 10.932 84.4032 10.0801C85.6978 9.72519 87.8915 9.83167 88.9524 10.2753C90.5347 10.9674 91.7035 12.5291 91.7035 13.9844C91.7035 14.357 91.6315 14.3748 90.1751 14.3748C88.7366 14.3748 88.6467 14.357 88.6467 14.0021C88.6467 13.4874 87.6757 12.6356 86.9205 12.4936C85.3562 12.2097 84.1514 12.9905 84.1514 14.286C84.1514 15.6703 84.8167 16.1317 87.2981 16.5043C89.9773 16.9125 91.3079 17.7111 91.7215 19.2196C92.0631 20.3908 91.9732 22.3784 91.5596 23.1948C91.0921 24.0821 90.1751 24.9339 89.276 25.3066C88.1432 25.7858 85.2303 25.8213 83.8817 25.3776Z" fill="white"/>
<path d="M109.864 25.5727C108.192 25.0403 107.077 24.0465 106.322 22.4493C105.891 21.5442 105.819 21.1538 105.819 19.7873C105.819 17.7819 106.196 16.6462 107.257 15.4749C108.408 14.2149 109.523 13.7712 111.573 13.7712C114.108 13.7712 115.636 14.5876 116.715 16.5397C117.309 17.6222 117.326 17.711 117.326 19.6986C117.326 21.4022 117.273 21.8636 116.949 22.5557C115.978 24.5966 114.378 25.5727 111.842 25.6614C110.997 25.6969 110.116 25.6614 109.864 25.5727ZM113.065 22.8929C113.91 22.3783 114.36 21.3135 114.36 19.7873C114.36 16.9834 112.508 15.4572 110.422 16.5397C109.289 17.1076 108.875 17.9594 108.893 19.6986C108.893 21.278 109.361 22.3428 110.278 22.8929C111.033 23.3543 112.292 23.3543 113.065 22.8929Z" fill="white"/>
<path d="M122.487 25.4663C120.869 24.9694 119.502 23.5852 118.981 21.9348C118.873 21.5266 118.765 20.4441 118.783 19.5213C118.783 17.4982 119.197 16.4156 120.347 15.2976C122.109 13.594 125.148 13.2035 127.504 14.3925C130.111 15.688 131.154 19.8052 129.644 22.8221C128.673 24.7565 126.91 25.7503 124.447 25.7148C123.8 25.7148 122.919 25.6083 122.487 25.4663ZM125.796 22.9641C126.227 22.7689 126.533 22.3962 126.874 21.7218C127.288 20.87 127.342 20.6038 127.27 19.4503C127.126 17.2852 126.227 16.2382 124.519 16.2382C123.422 16.2382 122.757 16.6109 122.181 17.5869C121.66 18.4565 121.66 20.941 122.199 21.8283C122.973 23.1238 124.447 23.603 125.796 22.9641Z" fill="white"/>
<path d="M133.995 25.3774C133.402 25.1112 133.15 24.8628 132.88 24.2771C132.574 23.6028 132.52 23.0881 132.52 19.9292V16.3267H131.711H130.902V15.2619C130.902 14.6763 130.902 14.1439 130.902 14.0729C130.902 13.9842 131.244 13.9309 131.657 13.9132L132.431 13.8954V12.7064V11.5352H134.013H135.577V12.7419V13.9309H136.782C137.465 13.9309 138.023 13.9842 138.059 14.0729C138.077 14.1439 138.095 14.6763 138.095 15.2619V16.3267H136.836H135.577V19.6098C135.577 23.3543 135.541 23.2478 137.178 23.2478H138.095V24.3836C138.095 25.7146 138.059 25.7323 136.027 25.7323C135.164 25.7323 134.516 25.6081 133.995 25.3774Z" fill="white"/>
<path d="M93.5016 17.7465V10.1155H95.03H96.5584V12.8129V15.5104L97.2416 14.8538C98.77 13.3808 101.431 13.2744 102.978 14.6053C104.128 15.5991 104.182 15.9008 104.254 20.9053L104.326 25.3774H102.798H101.269L101.197 21.5265C101.144 17.3383 101.072 17.0721 100.155 16.5929C98.9499 15.9718 97.4574 16.451 96.918 17.6045C96.6123 18.2789 96.5584 18.7758 96.5584 21.8814V25.3774H95.03H93.5016V17.7465Z" fill="white"/>
<path d="M140.252 17.8353V10.2931H141.853H143.453L145.575 14.3925C147.481 18.0305 147.732 18.4387 147.948 18.1548C148.074 17.9773 149.063 16.1139 150.142 14.0198L152.102 10.2043H153.63H155.177V17.7998V25.3776H153.648H152.12L152.084 20.8345L152.03 16.3091L150.412 19.326L148.793 22.3429L147.715 22.3607H146.636L145.017 19.3793L143.399 16.4156L143.345 20.9055L143.309 25.3776H141.781H140.252V17.8353Z" fill="white"/>
</svg>
