<svg width="139" height="51" viewBox="0 0 139 51" fill="none" xmlns="http://www.w3.org/2000/svg">
<path d="M63.8289 48.4141C62.9373 47.7245 63.0689 46.3166 64.0482 45.9144C65.1151 45.469 65.9921 46.1011 65.9921 47.2935C65.9921 47.8969 65.9337 48.0549 65.5829 48.3566C65.0713 48.7876 64.3405 48.802 63.8289 48.4141Z" fill="#003A72"/>
<path d="M69.6315 48.4141C68.7107 48.0549 67.8191 47.1499 67.4391 46.1873C67.0152 45.0811 67.0445 42.567 67.4976 41.5758C67.9214 40.6563 68.6961 39.9093 69.6462 39.4783C70.6985 39.0186 72.5548 39.0186 73.6364 39.4927C74.8349 40.0242 75.7119 41.231 75.7119 42.3659C75.7119 42.6676 75.6534 42.682 74.5864 42.6389C73.5487 42.5958 73.4464 42.567 73.4025 42.2941C73.3294 41.7769 72.584 41.2023 71.8824 41.1304C70.4354 40.9868 69.5731 42.0355 69.5731 43.9606C69.5877 45.7276 70.1723 46.6183 71.4293 46.7907C72.2625 46.9056 73.0371 46.5321 73.3002 45.9L73.5194 45.3972H74.6157H75.7119V45.8282C75.7119 46.8051 75.0541 47.782 74.031 48.3135C73.1687 48.7589 70.6693 48.8163 69.6315 48.4141Z" fill="#003A72"/>
<path d="M79.6583 48.5721C78.5182 48.213 77.5243 47.3223 76.9981 46.1873C76.7204 45.5839 76.6766 45.2104 76.6619 43.9606C76.6619 42.5383 76.6912 42.3946 77.1443 41.4896C77.9628 39.8375 79.1467 39.1766 81.266 39.1623C82.8007 39.1623 83.7508 39.5214 84.6278 40.4552C85.6071 41.5039 85.8555 42.2079 85.8555 43.9606C85.8701 45.6989 85.5924 46.5034 84.657 47.4515C83.7508 48.3854 83.1515 48.6152 81.4853 48.6583C80.6814 48.6727 79.8629 48.6439 79.6583 48.5721ZM82.4207 46.4459C83.8677 45.4115 83.7946 42.3803 82.3038 41.4177C81.3099 40.7569 79.9213 41.1735 79.3805 42.2797C79.0298 42.9693 78.9567 44.6358 79.2344 45.3541C79.7313 46.647 81.3537 47.2073 82.4207 46.4459Z" fill="#003A72"/>
<path d="M86.9664 43.9606V39.3634H88.2964H89.6411L89.5534 39.8949L89.4657 40.4121L89.9334 39.9811C90.1965 39.7369 90.5327 39.4783 90.6935 39.3921C91.2197 39.1335 92.3013 39.0473 92.959 39.2197C93.646 39.4065 94.5668 40.211 94.5668 40.6276C94.5668 40.7856 94.7276 40.6851 95.0199 40.3259C96.2184 38.9037 98.4547 38.7025 99.6971 39.9093C100.442 40.6563 100.559 41.3459 100.559 45.2535V48.5577H99.317H98.0747V45.5408C98.0747 41.978 97.987 41.6332 97.0808 41.3603C96.5692 41.2166 96.423 41.231 95.9261 41.4608C95.1076 41.8631 95.0199 42.251 95.0199 45.6558L95.0053 48.5577H93.7775H92.5351L92.4913 45.2535C92.4474 42.0355 92.4328 41.9493 92.1113 41.6332C91.6435 41.1735 90.635 41.1735 90.1234 41.6476C89.568 42.1504 89.4219 43.1561 89.4803 46.0437L89.5242 48.5577H88.2526H86.9664V43.9606Z" fill="#003A72"/>
<path d="M5.95082 46.8945C3.87532 46.3199 2.2383 44.8545 1.43441 42.8001L1.05439 41.852L1.01054 28.0604C0.981311 18.392 1.01054 13.9959 1.12747 13.3351C1.50749 11.1514 2.89603 9.38436 5.04461 8.32126C6.19929 7.74661 6.24314 7.71788 6.24314 7.22943C6.24314 6.46802 6.60855 5.76408 7.14934 5.43365C7.60245 5.17506 7.88016 5.14633 10.9642 5.14633C14.6913 5.14633 15.0859 5.21816 15.5975 6.03703C15.7583 6.30999 15.8898 6.76971 15.8898 7.10013C15.8898 7.77534 16.0214 7.87591 16.9276 7.87591C17.6876 7.87591 18.3892 7.57422 18.7838 7.08577C18.9592 6.87027 19.2662 6.1376 19.4854 5.46239C20.1724 3.22126 20.8886 2.27309 22.4379 1.52605L23.4172 1.05196L30.316 1.00886C34.7301 0.980132 37.5218 1.02323 38.0626 1.10943C39.188 1.32492 40.0942 1.77027 40.8397 2.50295C41.5851 3.23563 41.892 3.82464 42.4767 5.59168C42.7982 6.56858 43.0613 7.08577 43.3829 7.38746L43.8214 7.80408L48.6739 7.89027C52.7957 7.94774 53.6288 8.0052 54.1843 8.20633C56.4059 9.05394 58.0868 10.9646 58.5545 13.1627C58.6714 13.6942 58.7153 18.1046 58.7153 27.6007C58.7153 39.4241 58.686 41.4066 58.496 42.1393C57.8529 44.5528 56.1282 46.2624 53.7019 46.8945C52.6349 47.1675 6.97395 47.1675 5.95082 46.8945ZM25.3904 43.9638C21.2832 42.0962 19.3685 40.717 17.4391 38.2748C14.6182 34.6976 13.3905 31.0055 13.5951 26.71C13.7997 22.4576 15.4952 18.7368 18.6523 15.6337C23.3587 11.0077 30.0529 9.42746 36.2648 11.4818C42.0382 13.3782 46.3354 18.2196 47.6216 24.2534C47.987 25.9917 48.0601 28.8793 47.7677 30.4308C46.9785 34.6689 44.6837 38.4759 41.3512 41.0762C40.0796 42.0818 38.8665 42.757 36.8787 43.5903L35.4024 44.2224H44.2599H53.1319L53.9065 43.8201C54.7835 43.3748 55.5289 42.441 55.792 41.4928C55.8943 41.1193 55.9236 36.3353 55.909 27.2415L55.8651 13.5506L55.5143 12.9041C55.0758 12.0708 54.5497 11.5106 53.8188 11.137C53.2634 10.8353 53.0003 10.821 48.3378 10.7491L43.4413 10.6773L42.4475 10.2032C41.1028 9.54239 40.4743 8.70915 39.8019 6.68351C39.2465 5.00267 39.0565 4.65788 38.4426 4.26999C38.0626 4.0114 37.5949 3.99703 30.8422 3.99703H23.651L23.1248 4.44239C22.701 4.81591 22.5256 5.14633 22.1017 6.51112C21.3855 8.75225 20.7278 9.58548 19.0177 10.3469C18.3161 10.6629 18.1553 10.6773 12.3089 10.7491C5.70234 10.8353 5.92158 10.7922 4.98615 11.7835C4.72306 12.0421 4.4015 12.4875 4.25534 12.7604C3.99225 13.2345 3.97763 13.9241 3.93378 27.0404C3.88993 42.168 3.87532 41.6652 4.76691 42.8863C5.03 43.2311 5.49771 43.619 5.96543 43.8489L6.74009 44.2224L16.3137 44.208C25.288 44.208 25.8727 44.1937 25.3904 43.9638ZM33.1516 41.5646C36.1917 41.0475 38.6619 39.7976 40.8104 37.7001C41.7751 36.7663 43.3244 34.7982 43.2075 34.6832C43.1783 34.6545 42.6959 34.7407 42.1259 34.8844C40.8104 35.2291 37.7118 35.2579 36.3671 34.9562C32.9323 34.1517 30.6522 31.5514 30.6522 28.4339C30.6522 25.8911 31.9092 23.808 34.0578 22.7449C34.6132 22.472 35.2271 22.2421 35.4171 22.2421C36.0602 22.2421 35.7678 21.9979 34.9347 21.8255C33.0639 21.4663 31.1784 21.7106 29.2344 22.6013C27.7728 23.2621 26.6912 24.0522 24.6011 25.9629C22.5987 27.7875 20.8447 29.0517 18.6815 30.2441C17.8484 30.7038 17.1322 31.1635 17.103 31.2641C17.0591 31.3646 17.1761 31.8531 17.3514 32.3415C18.8861 36.5365 22.1894 39.7258 26.3843 41.0475C28.6936 41.7801 30.9153 41.9525 33.1516 41.5646ZM42.5059 32.0111C44.7422 31.2784 44.7422 31.2784 44.9761 28.8937C45.2976 25.5751 44.4645 22.3283 42.6375 19.6418C41.819 18.4638 39.9042 16.5818 38.7057 15.7773C34.4524 12.9759 29.0298 12.6311 24.4403 14.8866C21.4147 16.3663 19.3539 18.4063 17.9215 21.3083C16.986 23.2046 16.6206 24.6125 16.5183 26.8249L16.4306 28.6063L17.1468 28.1897C19.5877 26.8106 21.1663 25.6325 23.5049 23.4489C25.9165 21.2077 27.9628 20.0153 30.4622 19.3832C31.9238 19.0097 34.2624 18.981 35.5486 19.297C36.7033 19.5844 38.3257 20.3745 39.0857 21.0066C40.1819 21.9404 40.8104 23.7793 40.1966 24.2677C40.0358 24.4114 39.5096 24.4689 38.5595 24.4832C35.8555 24.512 34.5693 25.0291 33.7947 26.4227C33.4146 27.0979 33.3562 27.3421 33.3562 28.3477C33.3562 29.6407 33.6339 30.3015 34.4816 31.1348C35.534 32.1835 37.1125 32.6001 39.5827 32.5139C40.8397 32.4708 41.4097 32.3703 42.5059 32.0111Z" fill="#003A72"/>
<path d="M68.3453 36.562C66.7814 36.131 65.8313 35.0392 65.6706 33.5451L65.5829 32.7549H66.8545H68.1115V33.1572C68.1115 34.0335 68.9446 34.6225 70.187 34.6225C71.7509 34.6225 72.6132 33.5163 72.0286 32.2521C71.7801 31.7206 71.2393 31.4907 69.5292 31.1603C66.8252 30.6575 65.9337 29.8961 65.8021 27.9854C65.7729 27.3963 65.8167 26.6637 65.919 26.3045C66.1529 25.4282 67.2345 24.4082 68.2722 24.049C69.31 23.7042 71.0055 23.7042 72.0432 24.049C73.1248 24.4082 74.1333 25.3994 74.3672 26.3189C74.6595 27.4682 74.6888 27.4394 73.3294 27.4394H72.1163L71.9409 26.9654C71.7363 26.4051 70.8593 25.8592 70.1723 25.8592C69.5146 25.8592 68.7546 26.2039 68.4623 26.6349C68.1261 27.1665 68.2576 28.129 68.7546 28.5456C69.1054 28.8473 69.3977 28.9192 71.7655 29.3789C73.8118 29.7811 74.6887 30.7868 74.6887 32.7262C74.6887 34.6082 74.148 35.5994 72.7302 36.3034C72.1017 36.6194 71.7509 36.6913 70.5231 36.72C69.5731 36.7487 68.813 36.7056 68.3453 36.562Z" fill="#003A72"/>
<path d="M77.7581 36.5476C77.0858 36.2603 76.6327 35.8293 76.2527 35.1254C75.9457 34.5938 75.9311 34.3065 75.8873 30.9592L75.8434 27.3676H77.0858H78.3428V30.3127C78.3428 33.5307 78.4597 34.0623 79.2198 34.4358C79.7459 34.6944 80.7837 34.6656 81.2806 34.3783C82.0115 33.9473 82.1138 33.5307 82.1869 30.3414L82.2599 27.4107H83.4877H84.7008L84.7447 32.0223L84.7739 36.6338H83.5315H82.2892V36.0017V35.3696L81.7338 35.9155C81.4268 36.2172 80.9299 36.5332 80.6083 36.6194C79.7898 36.8349 78.3574 36.8062 77.7581 36.5476Z" fill="#003A72"/>
<path d="M86.3817 32.0079V27.3676L87.5802 27.3963L88.7934 27.4251L88.7641 28.2583C88.7349 28.9623 88.7495 29.0484 88.9103 28.8042C89.5242 27.813 90.6058 27.1521 91.6143 27.1521C91.892 27.1521 91.9359 27.2239 91.9359 27.7124C91.9359 28.0141 91.892 28.56 91.8482 28.9335C91.7605 29.5513 91.7312 29.5944 91.2927 29.5944C90.7519 29.5944 89.758 30.0254 89.4219 30.3989C88.9541 30.9161 88.8811 31.462 88.8665 34.0479L88.8372 36.6338H87.6095H86.3817V32.0079Z" fill="#003A72"/>
<path d="M93.9821 32.9704V29.307H93.3244H92.6521L92.6959 28.3445L92.7397 27.3676L93.3682 27.4107L93.9821 27.4682V26.8217C93.9821 26.089 94.3183 25.069 94.6837 24.6668C95.166 24.1352 96.0138 23.8335 97.2854 23.7473L98.5131 23.6611V24.6237V25.5718H97.87C96.9784 25.5718 96.5984 25.9023 96.5107 26.7786L96.423 27.4682L97.4754 27.4107L98.5131 27.3676V28.3445V29.307H97.49H96.4669V32.9704V36.6338H95.2245H93.9821V32.9704Z" fill="#003A72"/>
<path d="M129.529 23.6755C129.573 23.5749 129.836 22.8135 130.143 21.9659L130.683 20.4575L129.003 15.9321C128.067 13.4611 127.307 11.378 127.307 11.3206C127.307 11.2487 127.906 11.2056 128.623 11.2056C129.353 11.2056 129.938 11.22 129.938 11.2487C129.938 11.2775 130.391 12.6135 130.961 14.2225C131.911 16.9521 131.984 17.1101 132.145 16.7223C132.233 16.4924 132.7 15.1563 133.183 13.7628L134.06 11.2056H135.287C136.106 11.2056 136.515 11.2631 136.515 11.3637C136.515 11.493 133.592 19.4662 132.174 23.2445L131.94 23.8479H130.713C129.777 23.8479 129.485 23.8048 129.529 23.6755Z" fill="#003A72"/>
<path d="M68.1845 20.5437C66.9714 20.1558 66.2991 19.5668 65.9336 18.5899C65.7583 18.1589 65.6267 17.5842 65.6267 17.3113V16.8085H66.8691H68.1115V17.2394C68.1115 17.5124 68.2722 17.8428 68.5353 18.1301C68.9592 18.5899 68.9884 18.6042 70.1577 18.6042C71.327 18.6042 71.3563 18.5899 71.7801 18.1301C72.3063 17.5555 72.3502 16.751 71.8971 16.1763C71.5024 15.6879 71.1955 15.573 69.3538 15.2138C67.673 14.8834 66.8691 14.4955 66.4014 13.8059C64.9836 11.7515 66.1237 8.84958 68.6084 8.16C69.6608 7.87268 71.444 7.95887 72.3063 8.31803C73.5925 8.87831 74.5426 10.1425 74.5426 11.3206C74.5426 11.6223 74.4841 11.6366 73.3002 11.6366C72.1309 11.6366 72.0578 11.6223 72.0578 11.3349C72.0578 10.9183 71.2686 10.2287 70.6547 10.1138C69.3831 9.88394 68.4038 10.5161 68.4038 11.5648C68.4038 12.6854 68.9446 13.0589 70.9616 13.3606C73.1394 13.691 74.221 14.3375 74.5572 15.5586C74.8349 16.5068 74.7618 18.1158 74.4257 18.7766C74.0456 19.4949 73.3002 20.1845 72.5694 20.4862C71.6486 20.8741 69.2808 20.9028 68.1845 20.5437Z" fill="#003A72"/>
<path d="M89.3049 20.7017C87.9456 20.2707 87.0394 19.4662 86.4255 18.1732C86.0748 17.4406 86.0163 17.1245 86.0163 16.0183C86.0163 14.3949 86.3232 13.4755 87.1856 12.5273C88.121 11.5073 89.0272 11.1482 90.6935 11.1482C92.7544 11.1482 93.9967 11.809 94.8737 13.3893C95.356 14.2656 95.3707 14.3375 95.3707 15.9465C95.3707 17.3256 95.3268 17.6992 95.0637 18.2594C94.2744 19.9115 92.9736 20.7017 90.9127 20.7735C90.2258 20.8023 89.5096 20.7735 89.3049 20.7017ZM91.9066 18.5324C92.5936 18.1158 92.959 17.2538 92.959 16.0183C92.959 13.7485 91.4535 12.513 89.758 13.3893C88.8372 13.849 88.501 14.5386 88.5157 15.9465C88.5157 17.2251 88.8957 18.087 89.6411 18.5324C90.255 18.9059 91.2781 18.9059 91.9066 18.5324Z" fill="#003A72"/>
<path d="M99.5655 20.6155C98.2501 20.2132 97.1392 19.0927 96.7154 17.7566C96.6277 17.4262 96.54 16.5499 96.5546 15.8028C96.5546 14.1651 96.8907 13.2887 97.8262 12.3837C99.2586 11.0045 101.729 10.6885 103.643 11.651C105.763 12.6997 106.611 16.0327 105.383 18.4749C104.593 20.0408 103.161 20.8454 101.159 20.8166C100.632 20.8166 99.9163 20.7304 99.5655 20.6155ZM102.255 18.5899C102.606 18.4318 102.854 18.1301 103.132 17.5842C103.468 16.8946 103.512 16.6792 103.453 15.7454C103.336 13.9927 102.606 13.1451 101.217 13.1451C100.326 13.1451 99.7848 13.4468 99.317 14.2369C98.8932 14.9408 98.8932 16.9521 99.3316 17.6704C99.9601 18.7192 101.159 19.107 102.255 18.5899Z" fill="#003A72"/>
<path d="M108.92 20.5437C108.438 20.3282 108.233 20.127 108.014 19.653C107.765 19.107 107.721 18.6904 107.721 16.1332V13.2169H107.064H106.406V12.3549C106.406 11.8808 106.406 11.4499 106.406 11.3924C106.406 11.3206 106.684 11.2775 107.02 11.2631L107.648 11.2487V10.2862V9.33803H108.934H110.206V10.3149V11.2775H111.185C111.741 11.2775 112.194 11.3206 112.223 11.3924C112.238 11.4499 112.252 11.8808 112.252 12.3549V13.2169H111.229H110.206V15.8746C110.206 18.9059 110.177 18.8197 111.507 18.8197H112.252V19.7392C112.252 20.8166 112.223 20.831 110.571 20.831C109.87 20.831 109.344 20.7304 108.92 20.5437Z" fill="#003A72"/>
<path d="M76.0042 14.3662V8.18873H77.2466H78.489V10.3724V12.5561L79.0444 12.0245C80.2868 10.8321 82.45 10.7459 83.7069 11.8234C84.6424 12.6279 84.6862 12.8721 84.7447 16.9234L84.8032 20.5437H83.5608H82.3184L82.2599 17.4262C82.2161 14.0358 82.1576 13.8203 81.4122 13.4324C80.4329 12.9296 79.2198 13.3175 78.7813 14.2513C78.5328 14.7972 78.489 15.1994 78.489 17.7135V20.5437H77.2466H76.0042V14.3662Z" fill="#003A72"/>
<path d="M114.006 14.438V8.33239H115.307H116.608L118.333 11.651C119.882 14.5961 120.087 14.9265 120.262 14.6966C120.364 14.553 121.168 13.0445 122.045 11.3493L123.638 8.26056H124.881H126.138V14.4093V20.5437H124.895H123.653L123.624 16.8659L123.58 13.2025L122.264 15.6448L120.949 18.087L120.072 18.1014H119.195L117.88 15.6879L116.564 13.2887L116.52 16.9234L116.491 20.5437H115.249H114.006V14.438Z" fill="#003A72"/>
</svg>
