<svg width="36" height="480" viewBox="0 0 36 480" fill="none" xmlns="http://www.w3.org/2000/svg">
<path d="M14.3809 43.6364C14.3809 29.0909 23.9682 14.5455 27.1712 -3.85919e-07L2.28882e-05 -1.57361e-06L2.09808e-05 43.6364L1.90734e-05 87.2727L1.7166e-05 130.909L1.52586e-05 174.545L1.33512e-05 218.182L1.14437e-05 261.818L9.53634e-06 305.455L7.62894e-06 349.091L5.72153e-06 392.727L3.81412e-06 436.364L1.90672e-06 480L33.5554 480C35.0807 465.455 27.2365 450.909 27.1712 436.364C27.2365 421.818 35.0807 407.273 33.5554 392.727C32.0302 378.182 20.6998 363.636 21.5713 349.091C22.4429 334.545 35.0807 320 35.9522 305.455C36.8238 290.909 25.4934 276.364 23.9682 261.818C22.4429 247.273 30.287 232.727 32.7492 218.182C35.0807 203.636 32.0302 189.091 31.1586 174.545C30.287 160 32.0302 145.455 32.7492 130.909C33.5554 116.364 33.5554 101.818 28.7618 87.2727C23.9682 72.7273 14.3809 58.1818 14.3809 43.6364Z" fill="#D0E6E7"/>
</svg>
