<svg width="1280" height="53" viewBox="0 0 1280 53" fill="none" xmlns="http://www.w3.org/2000/svg">
<path d="M16.8844 15.3718L0 17.7135V53H16.8844H101.306H202.613H303.919H405.225H506.532H607.838H709.144H810.451H911.757H1013.06H1114.37H1215.68H1280V26C1280 26 1249.44 5.84444 1215.68 3.59894C1181.91 1.35344 1148.14 12.9017 1114.37 12.998C1080.6 12.9017 1046.83 1.35344 1013.06 3.59894C979.294 5.84444 945.526 22.5253 911.757 21.2422C877.988 19.959 844.219 1.35344 810.451 0.0702921C776.682 -1.21285 742.913 15.468 709.144 17.7135C675.375 19.959 641.607 8.41073 607.838 4.78585C574.069 1.35344 540.3 5.84444 506.532 7.12759C472.763 8.41073 438.994 5.84444 405.225 4.78585C371.457 3.59894 337.688 3.59894 303.919 10.6562C270.15 17.7135 236.381 31.8281 202.613 31.8281C168.844 31.8281 135.075 17.7135 101.306 12.998C67.5375 8.41073 33.7688 12.9017 16.8844 15.3718Z" fill="#163F69"/>
</svg>
